<svg xmlns="http://www.w3.org/2000/svg" width="49" height="71" viewBox="0 0 49 71">
    <g fill="none" fill-rule="evenodd" stroke-linecap="round" stroke-linejoin="round" stroke-width="1.5">
        <path stroke="#0E2738" d="M23 59a7 7 0 0 0-7-7"/>
        <path stroke="#63B6EF" d="M7 53.833v-17.18C7 35.74 7.732 35 8.636 35c4.005 0 7.253 3.282 7.253 7.33v12.455c0 1.241.407 2.447 1.155 3.427l4.8 6.28A5.641 5.641 0 0 1 23 67.916V70"/>
        <path stroke="#0E2738" d="M1 70V34.809a21.23 21.23 0 0 1 4.616-13.2L12 14M12 28.353V1h36v62H28.2"/>
        <path stroke="#0E2738" d="M32.34 32H25v-7h7.34c2.023 0 3.66 1.564 3.66 3.493v.014C36 30.435 34.363 32 32.34 32zM32.34 39H25v-7h7.34c2.023 0 3.66 1.565 3.66 3.493v.014C36 37.435 34.363 39 32.34 39zM30 21v4M30 39v4M38 59a7 7 0 0 1 7-7M23 5a7 7 0 0 1-7 7M38 5a7 7 0 0 0 7 7"/>
    </g>
</svg>
