<svg width="10" height="7" viewBox="0 0 10 7" fill="none" xmlns="http://www.w3.org/2000/svg">
    <path fill-rule="evenodd" clip-rule="evenodd" d="M0 0.5C0 0.223633 0.223633 0 0.5 0H9.5C9.65771 0 9.79883 0.0732422 9.89014 0.1875C9.95898 0.272949 10 0.381348 10 0.5C10 0.776367 9.77637 1 9.5 1H0.5C0.223633 1 0 0.776367 0 0.5ZM2 3.5C2 3.22363 2.22363 3 2.5 3H9.5C9.77637 3 10 3.22363 10 3.5C10 3.77637 9.77637 4 9.5 4H2.5C2.22363 4 2 3.77637 2 3.5ZM3.5 6C3.22363 6 3 6.22363 3 6.5C3 6.77637 3.22363 7 3.5 7H9.5C9.77637 7 10 6.77637 10 6.5C10 6.22363 9.77637 6 9.5 6H3.5Z" fill="white"/>
</svg>
