<svg height="17" viewBox="0 0 20 17" width="20" xmlns="../../../../external452e.html?link=http://www.w3.org/2000/svg"><path d="m13.5713728 11.56c-.7869046 0-1.4285157-.6107314-1.4285157-1.36 0-.74916242.6416111-1.36 1.4285157-1.36.7870162 0 1.4286272.61083758 1.4286272 1.36 0 .7492686-.641611 1.36-1.4286272 1.36m-.1200155 2.8069811c-1.095756 1.1798877-3.191887 1.2730189-3.80735796 1.2730189-.61559608 0-2.71473121-.0931312-3.80748314-1.2730189-.16297398-.1761249-.16297398-.4586275 0-.6348875.16322434-.1761248.42483392-.1761248.58805826 0 .68932244.7446445 2.16372388 1.0105213 3.21942488 1.0105213 1.05269686 0 2.52997726-.2658768 3.21955006-1.0105213.162974-.1761248.4245835-.1761248.5878079 0 .160095.17626.160095.4587626 0 .6348875m-8.4513573-4.1670342c0-.74913317.64161107-1.3599469 1.42862718-1.3599469.78690461 0 1.42851568.61081373 1.42851568 1.3599469 0 .7491332-.64161107 1.3600531-1.42851568 1.3600531-.78701611-.0002123-1.42862718-.6109199-1.42862718-1.3600531m15-1.55109372c0-1.15380136-.9785156-2.08708812-2.1882324-2.08708812-.5913086 0-1.1257324.22319245-1.5187988.58691349-1.4948731-1.03062057-3.5568848-1.69484224-5.8532716-1.77215042l.9965821-4.47479336 3.2568359.6614274c.0390625.79019677.7172852 1.42007221 1.5549317 1.42007221.8643799 0 1.5638428-.6671324 1.5638428-1.4916754 0-.82442662-.699463-1.49155898-1.5638428-1.49155898-.6154785 0-1.1407471.34066831-1.3958741.83304227l-3.6380615-.73861916c-.1020507-.02002562-.2070312-.00267785-.2941894.0515776-.0869141.05437185-.1470947.137385-.1679688.23471883 0 0-1.09265135 4.96437302-1.09265135 4.99301432-2.33825681.05716615-4.43945312.72429851-5.95825194 1.76923972-.3931885-.36069392-.92456056-.58120852-1.51281737-.58120852-1.20971681 0-2.18823244.93608103-2.18823244 2.08708812 0 .84736292.53125 1.57748282 1.29370119 1.90371402-.032959.2063104-.05102541.4179765-.05102541.6327862 0 3.2121318 3.92016603 5.8146466 8.75585938 5.8146466 4.83557124 0 8.75573734-2.6025148 8.75573734-5.8146466 0-.211899-.0179444-.4208872-.0509034-.6269647.7593995-.3263477 1.2966309-1.05635121 1.2966309-1.90953552" fill="#fff"/></svg>