<?xml version="1.0" encoding="UTF-8"?>
<svg width="20px" height="18px" viewBox="0 0 20 18" version="1.1" xmlns="http://www.w3.org/2000/svg" xmlns:xlink="../../../../externale367.html?link=http://www.w3.org/1999/xlink">
    <!-- Generator: Sketch 52.1 (67048) - http://www.bohemiancoding.com/sketch -->
    <title>telegram (1)</title>
    <desc>Created with Sketch.</desc>
    <g id="Page-1" stroke="none" stroke-width="1" fill="none" fill-rule="evenodd" opacity="0.8">
        <g id="PrimeXBT_v2" transform="translate(-1130.000000, -660.000000)" fill="#FFFFFF" fill-rule="nonzero">
            <g id="telegram-(1)" transform="translate(1130.000000, 660.000000)">
                <path d="M0.35325945,8.39118643 L4.96166548,10.1197467 L6.74540115,15.8847634 C6.85953464,16.2539919 7.30880189,16.3904678 7.60700228,16.1454544 L10.1758056,14.0408987 C10.4450727,13.8204068 10.8286065,13.8094191 11.1100069,14.0147023 L15.7432129,17.3952437 C16.0622134,17.6282644 16.5141473,17.4525944 16.5941474,17.0652093 L19.9882185,0.65788894 C20.0755519,0.234726654 19.6618181,-0.118288243 19.2608842,0.0375501797 L0.347859443,7.36992887 C-0.118874501,7.55082472 -0.114807829,8.21491347 0.35325945,8.39118643 Z M6.45793411,9.19958987 L15.4644792,3.62484884 C15.6263461,3.52495413 15.7928797,3.74491008 15.6538795,3.8744851 L8.22086975,10.8182057 C7.95960274,11.0626161 7.79106919,11.3897026 7.74333579,11.7447274 L7.49013546,13.6304662 C7.45660208,13.8822464 7.10466829,13.9072368 7.03553487,13.6635634 L6.06173359,10.2248673 C5.95020011,9.83265834 6.11273366,9.41371695 6.45793411,9.19958987 Z" id="XMLID_497_"></path>
            </g>
        </g>
    </g>
</svg>