<svg height="19" viewBox="0 0 25 19" width="25" xmlns="../../../../external452e.html?link=http://www.w3.org/2000/svg"><path d="m24 2.24930769c-.8925.38146154-1.8435.63430769-2.835.75707693 1.02-.59338462 1.7985-1.52584616 2.1645-2.64976923-.951.55246153-2.001.9426923-3.12 1.16046153-.903-.93684615-2.19-1.51707692-3.594-1.51707692-2.724 0-4.917 2.15430769-4.917 4.79530769 0 .38.033.74538462.114 1.09323077-4.0905-.19438461-7.71-2.10461538-10.1415-5.01453846-.4245.71761538-.6735 1.539-.6735 2.42323077 0 1.66030769.8775 3.13207692 2.1855 3.98415385-.7905-.01461539-1.566-.23823077-2.223-.59046154v.05261538c0 2.32969231 1.7055 4.26476924 3.942 4.71053844-.4005.1066923-.837.1578462-1.29.1578462-.315 0-.633-.0175385-.9315-.0818462.6375 1.8985385 2.4465 3.2943077 4.5975 3.3396154-1.674 1.2759231-3.7995 2.0446923-6.1005 2.0446923-.4035 0-.7905-.0175384-1.1775-.0657692 2.1795 1.3694615 4.7625 2.1513846 7.548 2.1513846 9.054 0 14.004-7.3076923 14.004-13.642 0-.21192308-.0075-.41653846-.018-.61969231.9765-.67523077 1.797-1.51853846 2.466-2.489z" fill="#fff" transform="translate(.666667)"/></svg>