<?xml version="1.0" encoding="UTF-8"?>
<svg width="57px" height="50px" viewBox="0 0 57 50" version="1.1" xmlns="http://www.w3.org/2000/svg" xmlns:xlink="../../../../externale367.html?link=http://www.w3.org/1999/xlink">
    <!-- Generator: sketchtool 52.1 (67048) - http://www.bohemiancoding.com/sketch -->
    <title>FA006672-0086-4607-8639-36AF6F890EA5</title>
    <desc>Created with sketchtool.</desc>
    <g id="Page-1" stroke="none" stroke-width="1" fill="none" fill-rule="evenodd">
        <g id="PrimeXBT_ref" transform="translate(-501.000000, -1679.000000)" fill="#2892cf">
            <g id="bar-chart-2" transform="translate(501.000000, 1679.000000)">
                <path d="M55.653375,47 L1.346625,47 C0.602841797,47 0,47.671503 0,48.5 C0,49.328249 0.602841797,50 1.346625,50 L55.653375,50 C56.3969355,50 57,49.328249 57,48.5 C57,47.671627 56.3971582,47 55.653375,47 Z" id="Path"></path>
                <path d="M51.652923,6.43100116 L42.1918652,6.43100116 C41.4479936,6.43100116 40.8446768,7.04105883 40.8446768,7.79324181 L40.8446768,17.0550367 L34.0778843,17.0550367 L34.0778843,1.36224065 C34.0778843,0.610057671 33.4745676,0 32.730696,0 L23.2694154,0 C22.5255438,0 21.922227,0.610057671 21.922227,1.36224065 L21.922227,27.1387258 L15.1554345,27.1387258 L15.1554345,15.5593424 C15.1554345,14.8069342 14.5521178,14.1971018 13.8082462,14.1971018 L4.34718835,14.1971018 C3.60309399,14.1971018 3,14.8069342 3,15.5593424 L3,41.6377594 C3,42.3901676 3.60331674,43 4.34718835,43 L13.8082462,43 L23.269304,43 L32.7305846,43 L42.1917538,43 L51.6528117,43 C52.396906,43 53,42.3899423 53,41.6377594 L53,7.79324181 C53.0001114,7.04105883 52.3970174,6.43100116 51.652923,6.43100116 Z M12.4611692,40.2755187 L5.69437669,40.2755187 L5.69437669,16.9215831 L12.4611692,16.9215831 L12.4611692,40.2755187 Z M21.9224498,40.2755187 L15.1556573,40.2755187 L15.1556573,29.8632071 L21.9224498,29.8632071 L21.9224498,40.2755187 Z M31.383619,18.4172773 L31.383619,40.2755187 L24.6167151,40.2755187 L24.6167151,2.7244813 L31.383619,2.7244813 L31.383619,18.4172773 Z M40.8448996,40.2755187 L34.0781071,40.2755187 L34.0781071,19.779518 L40.8448996,19.779518 L40.8448996,40.2755187 Z M50.3059574,40.2755187 L43.5392763,40.2755187 L43.5392763,18.4172773 L43.5392763,9.15548245 L50.3060688,9.15548245 L50.3060688,40.2755187 L50.3059574,40.2755187 Z" id="Shape"></path>
            </g>
        </g>
    </g>
</svg>