<svg xmlns="http://www.w3.org/2000/svg" width="54" height="62" viewBox="0 0 54 62">
    <g fill="none" fill-rule="evenodd">
        <path fill="#0E2738" d="M28.383 54.058a.914.914 0 0 0-1.218.434l-1.979 4.163c-.454.956-1.346 1.165-2.029 1.042-.683-.123-1.444-.63-1.536-1.685l-3.218-37.13c-.052-.6.229-1.137.75-1.438a1.476 1.476 0 0 1 1.62.07l2.188 1.53a.914.914 0 1 0 1.048-1.5l-2.188-1.529a3.306 3.306 0 0 0-3.583-.154 3.308 3.308 0 0 0-1.656 3.18l3.217 37.129a3.666 3.666 0 0 0 3.033 3.326c.229.042.457.062.68.062a3.66 3.66 0 0 0 3.325-2.118l1.98-4.164a.914.914 0 0 0-.434-1.218z"/>
        <path fill="#0E2738" d="M52.368 39.367L27.036 21.66a.914.914 0 0 0-1.047 1.499L51.32 40.865c.868.607.926 1.52.692 2.174-.235.653-.862 1.32-1.917 1.235l-14.865-1.19a3.676 3.676 0 0 0-2.147.484 3.682 3.682 0 0 0-1.496 1.619l-2.948 6.203a.914.914 0 1 0 1.651.785l2.949-6.204c.163-.344.425-.627.759-.82.33-.19.704-.276 1.086-.245l14.865 1.19a3.666 3.666 0 0 0 3.783-2.439 3.667 3.667 0 0 0-1.364-4.29z"/>
        <path fill="#0E2738" d="M22.556 25.337a.914.914 0 0 0-.335 1.249l8.768 15.186a.914.914 0 1 0 1.583-.914l-8.768-15.186a.914.914 0 0 0-1.248-.335z"/>
        <path fill="#52AFEF" d="M29.744 21.98a.914.914 0 0 0 1.085-.703c.185-.858.278-1.741.278-2.624 0-6.844-5.568-12.412-12.411-12.412-6.844 0-12.412 5.568-12.412 12.412 0 5.42 3.464 10.17 8.62 11.819a.913.913 0 1 0 .557-1.742 10.542 10.542 0 0 1-7.348-10.078c0-5.835 4.747-10.583 10.583-10.583 5.835 0 10.583 4.748 10.583 10.583 0 .755-.08 1.51-.237 2.242a.914.914 0 0 0 .702 1.085z"/>
        <path fill="#0E2738" d="M15.9 35.245A16.826 16.826 0 0 1 1.871 18.652c0-9.276 7.548-16.824 16.825-16.824 9.276 0 16.824 7.548 16.824 16.825 0 2.021-.355 3.998-1.056 5.877a.914.914 0 1 0 1.713.639 18.593 18.593 0 0 0 1.171-6.516C37.348 8.368 28.981 0 18.696 0S.043 8.368.043 18.653a18.656 18.656 0 0 0 15.556 18.396.915.915 0 0 0 .301-1.803z"/>
    </g>
</svg>
