<svg xmlns="http://www.w3.org/2000/svg" width="66" height="67" viewBox="0 0 66 67">
    <g fill="none" fill-rule="evenodd" stroke="#FFF" stroke-width=".3">
        <path fill="#122B3B" d="M63.083 5.534h-9.53V2.039c0-.574-.466-1.039-1.04-1.039H13.487c-.574 0-1.04.465-1.04 1.039v3.495h-9.53A2.474 2.474 0 0 0 .446 8.005V53.61a2.474 2.474 0 0 0 2.471 2.471H25.61v7.95h-9.8a1.039 1.039 0 1 0 0 2.078h29.782a1.039 1.039 0 1 0 0-2.078h-5.2v-7.95h4.276a1.039 1.039 0 1 0 0-2.077H2.917a.399.399 0 0 1-.393-.394V8.005c0-.213.18-.393.393-.393h9.53v37.937H5.783a1.039 1.039 0 1 0 0 2.078h38.885a1.039 1.039 0 1 0 0-2.078H36.51v-8.491c0-.574-.465-1.039-1.04-1.039H19.029c-.574 0-1.039.465-1.039 1.039v8.491h-3.463V6.574 3.078h36.948v9.467a1.039 1.039 0 1 0 2.078 0V7.612h9.53c.214 0 .394.18.394.393V53.61c0 .213-.18.394-.393.394h-2.724a1.039 1.039 0 1 0 0 2.078h2.724a2.474 2.474 0 0 0 2.471-2.472V8.005a2.474 2.474 0 0 0-2.471-2.471zM38.313 64.03H27.687v-7.95h10.626v7.95zM20.067 38.097h14.365v7.452H20.067v-7.452z"/>
        <path fill="#52AFEF" d="M56.621 26.137l-.007-.045c-.004-.021-.01-.042-.016-.063l-.009-.033a.99.99 0 0 0-.023-.064l-.009-.024-.005-.013-.003-.006-3.82-9.082a1.079 1.079 0 0 0-1-.645c-.44 0-.835.256-1 .645l-3.82 9.082-.007.019-.01.026c-.008.02-.016.041-.022.062l-.01.033-.015.063-.007.045-.008.053a.983.983 0 0 0-.006.101v35.135c0 2.581 2.2 4.682 4.906 4.682 2.704 0 4.905-2.1 4.905-4.682V26.29a.983.983 0 0 0-.005-.1c-.002-.019-.006-.037-.009-.054zM48.98 27.32h5.5v29.376h-5.5V27.32zm2.75-7.368l2.234 5.31h-4.467l2.234-5.31zm0 44.099c-1.516 0-2.75-1.178-2.75-2.626v-2.672h5.5v2.672c0 1.448-1.233 2.626-2.75 2.626z"/>
        <path fill="#122B3B" d="M18.441 16.162h28.226c.58 0 1.05-.486 1.05-1.085v-7.64c0-.6-.47-1.086-1.05-1.086H18.44c-.58 0-1.05.486-1.05 1.086v7.64c0 .6.47 1.085 1.05 1.085zm1.05-7.64h26.126v5.47H19.491v-5.47zM46.667 17.946H18.44c-.58 0-1.05.4-1.05.892 0 .493.47.892 1.05.892h28.226c.58 0 1.05-.4 1.05-.892 0-.493-.47-.892-1.05-.892zM35.07 23.297H18.444c-.58 0-1.051.4-1.051.892 0 .493.47.892 1.05.892h16.629c.58 0 1.05-.4 1.05-.892s-.47-.892-1.05-.892zM44.028 23.297h-5.11c-.56 0-1.013.4-1.013.892 0 .493.454.892 1.013.892h5.11c.56 0 1.013-.4 1.013-.892s-.454-.892-1.013-.892zM35.07 27.757H18.444c-.58 0-1.051.399-1.051.892 0 .492.47.892 1.05.892h16.629c.58 0 1.05-.4 1.05-.892 0-.493-.47-.892-1.05-.892zM44 27.757h-5.053c-.575 0-1.042.399-1.042.892 0 .492.467.892 1.042.892h5.052c.575 0 1.042-.4 1.042-.892 0-.493-.467-.892-1.042-.892zM35.07 32.216H18.444c-.58 0-1.051.4-1.051.892 0 .493.47.892 1.05.892h16.629c.58 0 1.05-.4 1.05-.892 0-.493-.47-.892-1.05-.892zM44 32.216h-5.053c-.575 0-1.042.4-1.042.892 0 .493.467.892 1.042.892h5.052c.575 0 1.042-.4 1.042-.892 0-.493-.467-.892-1.042-.892z"/>
    </g>
</svg>
