<svg xmlns="http://www.w3.org/2000/svg" width="60" height="60" viewBox="0 0 60 60">
    <g fill="none" fill-rule="evenodd" stroke="#FFF" stroke-width=".3">
        <path fill="#122B3B" d="M58.947 16.795a3.858 3.858 0 0 0-3.811-3.227 3.858 3.858 0 0 0-3.624 2.564l-11.855-1.078a5.756 5.756 0 0 0-.453-1.847l8.501-5.497a3.851 3.851 0 1 0-1.264-2.835c.006.412.078.822.214 1.211l-8.501 5.505a5.785 5.785 0 0 0-9.597 1.642L18.352 10.78a8.693 8.693 0 0 0-7.54-9.71A8.693 8.693 0 1 0 9.43 18.382l.832 10.817a5.789 5.789 0 0 0-1.321 10.73L5.16 51.263c-.087-.006-.17-.027-.26-.027a3.882 3.882 0 1 0 2.097.627l3.777-11.326c.588.1 1.189.1 1.777 0l3.777 11.326a3.852 3.852 0 1 0 4.214 6.452 3.852 3.852 0 0 0-2.117-7.079c-.09 0-.173.02-.261.027l-3.78-11.333a5.795 5.795 0 0 0-2.197-10.881l-.831-10.81a8.713 8.713 0 0 0 6.541-5.582l10.209 2.45c-.01.13-.02.26-.02.392a5.796 5.796 0 0 0 11.393 1.48l11.854 1.077a3.858 3.858 0 0 0 7.613-1.261zM50.306 2.943a1.932 1.932 0 1 1 0 3.864 1.932 1.932 0 0 1 0-3.864zM4.9 57.032a1.932 1.932 0 1 1 0-3.864 1.932 1.932 0 0 1 0 3.864zm13.525-3.864a1.932 1.932 0 1 1 0 3.864 1.932 1.932 0 0 1 0-3.864zm-6.763-22.215a3.864 3.864 0 1 1 .001 7.728 3.864 3.864 0 0 1 0-7.728zM9.731 16.465a6.762 6.762 0 1 1 0-13.522 6.762 6.762 0 0 1 6.763 6.761 6.77 6.77 0 0 1-6.763 6.761zm24.152 2.898a3.864 3.864 0 1 1-.001-7.728 3.864 3.864 0 0 1 0 7.728zm21.253 0a1.932 1.932 0 1 1 0-3.864 1.932 1.932 0 0 1 0 3.864z"/>
        <path fill="#52AFEF" d="M51.6 41.724a8.574 8.574 0 0 0-1.232-.089 8.643 8.643 0 0 0-8.052 5.577l-8.284-2.174c.016-.168.026-.336.026-.507a5.784 5.784 0 0 0-1.336-3.705l5.414-6.354a3.766 3.766 0 0 0 1.679.406c2.13.01 3.863-1.718 3.873-3.861.01-2.143-1.708-3.888-3.837-3.898-2.13-.01-3.864 1.72-3.874 3.862-.004.801.24 1.584.696 2.241l-5.41 6.352a5.686 5.686 0 0 0-2.961-.834c-.096 0-.192.01-.288.014l-1.807-8.175a3.86 3.86 0 0 0 1.65-5.183 3.814 3.814 0 0 0-5.15-1.66 3.86 3.86 0 0 0-1.651 5.182 3.823 3.823 0 0 0 3.28 2.086l1.803 8.165c-2.947 1.2-4.37 4.576-3.178 7.54 1.192 2.966 4.548 4.398 7.495 3.198a5.772 5.772 0 0 0 3.095-3.002l8.278 2.175c-.679 4.745 2.594 9.147 7.311 9.83 4.717.684 9.091-2.61 9.77-7.355.68-4.746-2.593-9.147-7.31-9.83zM39.815 29.087c1.06 0 1.918.864 1.918 1.93 0 1.067-.859 1.93-1.918 1.93a1.925 1.925 0 0 1-1.92-1.93c0-1.066.86-1.93 1.92-1.93zm-15.35 0a1.925 1.925 0 0 1-1.92-1.93c0-1.067.86-1.931 1.92-1.931 1.059 0 1.918.864 1.918 1.93 0 1.066-.86 1.93-1.919 1.93zm3.837 19.305c-2.12 0-3.838-1.728-3.838-3.86 0-2.133 1.718-3.862 3.838-3.862s3.837 1.729 3.837 3.861c0 2.133-1.718 3.861-3.837 3.861zm22.066 8.688c-3.709 0-6.716-3.025-6.716-6.757 0-3.732 3.007-6.757 6.716-6.757 3.71 0 6.716 3.025 6.716 6.757-.004 3.73-3.009 6.753-6.716 6.757z"/>
    </g>
</svg>
