<?xml version="1.0" encoding="UTF-8"?>
<svg width="62px" height="62px" viewBox="0 0 62 62" version="1.1" xmlns="http://www.w3.org/2000/svg" xmlns:xlink="../../../../externale367.html?link=http://www.w3.org/1999/xlink">
    <!-- Generator: sketchtool 52.1 (67048) - http://www.bohemiancoding.com/sketch -->
    <title>20858569-1B9F-4302-8B7D-78B40D6DF54D</title>
    <desc>Created with sketchtool.</desc>
    <g id="Page-1" stroke="none" stroke-width="1" fill="none" fill-rule="evenodd">
        <g id="PrimeXBT_ref" transform="translate(-499.000000, -1989.000000)" fill="#2892cf">
            <g id="diagram" transform="translate(499.000000, 1989.000000)">
                <rect id="Rectangle" x="5" y="7" width="13" height="2"></rect>
                <rect id="Rectangle" x="5" y="11" width="13" height="2"></rect>
                <rect id="Rectangle" x="5" y="15" width="9" height="2"></rect>
                <rect id="Rectangle" x="5" y="18" width="9" height="2"></rect>
                <rect id="Rectangle" x="0" y="60" width="62" height="2"></rect>
                <path d="M59.890608,8.74374466 L55.7490291,0.566115694 C55.4936749,0.0608915549 54.8720497,-0.144315822 54.3603059,0.107785146 C54.360047,0.107912921 54.3597882,0.108040697 54.3595293,0.108168472 L46.0763714,4.19698295 C45.5646276,4.44933947 45.3569015,5.06355607 45.6125146,5.56878021 C45.8681277,6.07400435 46.4902705,6.27908395 47.0020143,6.02672743 L53.0010914,3.06744795 L51.3641324,7.68167509 C44.1690449,27.9121069 25.6369027,42.1048931 4,43.9555928 L4.17601711,46 C26.6281638,44.0797905 45.8576443,29.3502197 53.319993,8.35632948 L54.9911201,3.64192639 L58.0372515,9.65759469 C58.2928645,10.1628188 58.9150073,10.3678984 59.4267512,10.1155419 C59.9386245,9.8631854 60.1462211,9.24909657 59.890608,8.74374466 Z" id="Path"></path>
                <path d="M12,50 L5,50 C4.44775,50 4,50.44775 4,51 L4,57 C4,57.55225 4.44775,58 5,58 L12,58 C12.55225,58 13,57.55225 13,57 L13,51 C13,50.44775 12.55225,50 12,50 Z M11,56 L6,56 L6,52 L11,52 L11,56 Z" id="Shape"></path>
                <path d="M24,46 L17,46 C16.44775,46 16,46.4884545 16,47.0909091 L16,56.9090909 C16,57.5115455 16.44775,58 17,58 L24,58 C24.55225,58 25,57.5115455 25,56.9090909 L25,47.0909091 C25,46.4884545 24.55225,46 24,46 Z M23,55.8181818 L18,55.8181818 L18,48.1818182 L23,48.1818182 L23,55.8181818 Z" id="Shape"></path>
                <path d="M35,41 L28,41 C27.44775,41 27,41.4757344 27,42.0625 L27,56.9375 C27,57.5242656 27.44775,58 28,58 L35,58 C35.55225,58 36,57.5242656 36,56.9375 L36,42.0625 C36,41.4757344 35.55225,41 35,41 Z M34,55.875 L29,55.875 L29,43.125 L34,43.125 L34,55.875 Z" id="Shape"></path>
                <path d="M47,35 L40,35 C39.44775,35 39,35.44775 39,36 L39,57 C39,57.55225 39.44775,58 40,58 L47,58 C47.55225,58 48,57.55225 48,57 L48,36 C48,35.44775 47.55225,35 47,35 Z M46,56 L41,56 L41,37 L46,37 L46,56 Z" id="Shape"></path>
                <path d="M58,20 L51,20 C50.44775,20 50,20.4598514 50,21.027027 L50,56.972973 C50,57.5401486 50.44775,58 51,58 L58,58 C58.55225,58 59,57.5401486 59,56.972973 L59,21.027027 C59,20.4598514 58.55225,20 58,20 Z M57,55.9459459 L52,55.9459459 L52,22.0540541 L57,22.0540541 L57,55.9459459 Z" id="Shape"></path>
            </g>
        </g>
    </g>
</svg>