<svg xmlns="http://www.w3.org/2000/svg" width="66" height="66" viewBox="0 0 66 66">
    <g fill="none" fill-rule="evenodd" stroke="#FFF">
        <path fill="#0E2738" d="M30.707 44.708a1.001 1.001 0 0 0-1.415-1.416 1.002 1.002 0 0 0 0 1.416c.392.39 1.025.39 1.415 0z"/>
        <path fill="#52AFEF" fill-rule="nonzero" d="M25 14.5C25 21.944 31.056 28 38.5 28S52 21.944 52 14.5 45.944 1 38.5 1 25 7.056 25 14.5zm24.546 0c0 6.09-4.955 11.045-11.046 11.045-6.09 0-11.046-4.955-11.046-11.045S32.41 3.455 38.5 3.455c6.09 0 11.046 4.955 11.046 11.045z"/>
        <path fill="#0E2738" fill-rule="nonzero" d="M15.398 64.635a1.261 1.261 0 0 0 1.765.01l6.06-5.895a3.696 3.696 0 0 0 .89-3.83l1.304-1.242a3.753 3.753 0 0 1 2.603-1.038h16.618c2.948 0 5.734-1.118 7.847-3.148.087-.084-.66.785 11.337-13.373a4.9 4.9 0 0 0-.594-6.959c-2.094-1.742-5.23-1.492-7.015.55l-7.376 7.487a5.048 5.048 0 0 0-3.887-1.838H31.01a16.306 16.306 0 0 0-6.26-1.234c-6.019 0-11.275 2.745-14.095 7.892A3.765 3.765 0 0 0 7.31 43.04l-5.946 5.89a1.224 1.224 0 0 0-.002 1.74l14.035 13.965zm9.352-28.042c1.915 0 3.766.381 5.504 1.131.158.069.328.104.5.104H44.95c1.356 0 2.5 1.092 2.5 2.468 0 1.362-1.121 2.47-2.5 2.47H34.751c-.69 0-1.25.552-1.25 1.233 0 .682.56 1.235 1.25 1.235h10.2c2.756 0 5-2.215 5-4.938 0-.217-.016-.432-.045-.645 7.136-7.242 8.142-8.26 8.185-8.31a2.53 2.53 0 0 1 3.524-.295 2.452 2.452 0 0 1 .294 3.484L50.697 47.765a8.763 8.763 0 0 1-6.06 2.406H28.02c-1.629 0-3.17.615-4.34 1.73l-1.062 1.013-9.793-9.67c2.289-4.24 6.583-6.65 11.925-6.65zM9.08 44.785a1.259 1.259 0 0 1 1.548-.174c.217.13-.405-.428 10.827 10.647.5.493.473 1.28.007 1.74l-5.166 5.025-12.283-12.22 5.068-5.018z"/>
        <path fill="#52AFEF" d="M36.723 7.215v1.423c-1.536.5-2.639 1.85-2.639 3.434 0 2.008 1.776 3.643 3.958 3.643.728 0 1.32.544 1.32 1.214 0 .67-.592 1.214-1.32 1.214-.563 0-1.172-.326-1.713-.919-.469-.513-1.3-.579-1.859-.148-.557.432-.63 1.198-.16 1.711.705.772 1.534 1.31 2.413 1.582v1.417c0 .67.59 1.214 1.32 1.214.728 0 1.318-.543 1.318-1.214v-1.423C40.897 19.86 42 18.512 42 16.929c0-2.01-1.775-3.643-3.958-3.643-.727 0-1.319-.545-1.319-1.214 0-.67.592-1.215 1.32-1.215.467 0 .96.22 1.426.635a1.402 1.402 0 0 0 1.866-.028 1.148 1.148 0 0 0-.03-1.717c-.67-.597-1.34-.934-1.944-1.118V7.215c0-.671-.59-1.215-1.319-1.215-.728 0-1.319.544-1.319 1.215z"/>
    </g>
</svg>
