<svg xmlns="http://www.w3.org/2000/svg" width="66" height="62" viewBox="0 0 66 62">
    <g fill="none" fill-rule="evenodd" stroke="#FFF">
        <path fill="#122B3B" d="M34.332 26.83a1.814 1.814 0 0 0 0 2.54c2.86 2.913 2.86 7.648 0 10.561l-15.02 15.296a7.246 7.246 0 0 1-10.37 0l-2.26-2.3c-2.86-2.914-2.86-7.649 0-10.562l15.02-15.296a1.814 1.814 0 0 0 0-2.54 1.736 1.736 0 0 0-2.495 0L4.187 39.825A11.101 11.101 0 0 0 1 47.645c0 2.954 1.123 5.734 3.187 7.822l2.26 2.3A10.728 10.728 0 0 0 14.126 61c2.781 0 5.563-1.077 7.68-3.232l15.02-15.296c4.23-4.31 4.23-11.333 0-15.642a1.736 1.736 0 0 0-2.495 0z"/>
        <path fill="#52AFEF" d="M61.825 6.533l-2.26-2.301a10.747 10.747 0 0 0-15.365 0L29.175 19.527c-4.233 4.309-4.233 11.331 0 15.64a1.737 1.737 0 0 0 2.495 0 1.813 1.813 0 0 0 0-2.54c-2.861-2.913-2.861-7.647 0-10.56L46.695 6.772a7.25 7.25 0 0 1 10.374 0l2.26 2.301c2.862 2.913 2.862 7.647 0 10.56L44.306 34.928a1.813 1.813 0 0 0 0 2.54c.34.346.797.532 1.24.532.445 0 .902-.173 1.242-.532l15.025-15.295A11.098 11.098 0 0 0 65 14.353c0-2.953-1.124-5.732-3.175-7.82z"/>
    </g>
</svg>
