<?xml version="1.0" encoding="UTF-8"?>
<svg width="57px" height="57px" viewBox="0 0 57 57" version="1.1" xmlns="http://www.w3.org/2000/svg" xmlns:xlink="../../../../externale367.html?link=http://www.w3.org/1999/xlink">
    <!-- Generator: sketchtool 52.1 (67048) - http://www.bohemiancoding.com/sketch -->
    <title>1BFC50C5-3F9C-4765-B2BC-BA04A54CC724</title>
    <desc>Created with sketchtool.</desc>
    <g id="Page-1" stroke="none" stroke-width="1" fill="none" fill-rule="evenodd">
        <g id="PrimeXBT_ref" transform="translate(-858.000000, -1672.000000)" fill="#2892cf">
            <g id="money" transform="translate(858.000000, 1672.000000)">
                <path d="M9.7069,51.293 C9.521,51.1069 9.263,51 9,51 C8.737,51 8.479,51.1069 8.293,51.293 C8.107,51.4791 8,51.737 8,52 C8,52.263 8.1069,52.521 8.293,52.7069 C8.479,52.8929 8.737,53 9,53 C9.263,53 9.521,52.893 9.7069,52.7069 C9.8929,52.521 10,52.263 10,52 C10,51.737 9.893,51.479 9.7069,51.293 Z" id="Path"></path>
                <path d="M52.7062322,20.293 C52.5203159,20.1069 52.2634315,20 51.9995502,20 C51.7366685,20 51.4787845,20.1069 51.2928682,20.293 C51.1070518,20.479 51,20.737 51,21 C51,21.263 51.1069519,21.521 51.2928682,21.7069 C51.4787845,21.8929 51.7366685,22 51.9995502,22 C52.2634315,22 52.5203159,21.893 52.7062322,21.7069 C52.8930481,21.521 53,21.263 53,21 C53,20.737 52.8930481,20.479 52.7062322,20.293 Z" id="Path"></path>
                <path d="M56.6739116,0.326079441 C56.4650548,0.117339615 56.1818288,0 55.8864678,0 L28.4997217,0.0014472628 C27.8849522,0.0014472628 27.3865235,0.499973633 27.3865235,1.11472634 L27.3865235,4.29837051 L16.8335739,7.12598804 C16.2396233,7.28518694 15.8871495,7.89559786 16.0463527,8.48942092 L21.5157084,28.9005021 L16.7842543,33.6318269 C16.1820652,32.7525591 15.1709575,32.1743219 14.0272546,32.1743219 L3.33981722,32.1743219 C1.49818062,32.1743219 0,33.6725729 0,35.5140478 L0,53.6600514 C-1.61358791e-16,55.5016377 1.49818062,56.9998887 3.33981722,56.9998887 L14.0273659,56.9998887 C15.5918998,56.9998887 16.9080543,55.9182267 17.2687666,54.4638389 L18.5924916,55.618198 C19.6143984,56.5092666 20.9236504,57 22.2795501,57 L55.8866905,57 C56.50146,57 57,56.5014736 57,55.8867209 L57,1.11327908 C56.9997773,0.818037465 56.8826572,0.534819268 56.6739116,0.326079441 Z M15.1404528,53.6601628 C15.1404528,54.2739135 14.6410221,54.7734418 14.0271433,54.7734418 L3.33970589,54.7734418 C2.72582702,54.7734418 2.22639637,54.2740249 2.22639637,53.6601628 L2.22639637,35.5141592 C2.22639637,34.9002971 2.72582702,34.4008801 3.33970589,34.4008801 L7.57017073,34.4008801 L7.57017073,47.2252984 C7.57017073,47.8400511 8.06871073,48.3385775 8.68348024,48.3385775 C9.29824976,48.3385775 9.79678976,47.8400511 9.79678976,47.2252984 L9.79678976,34.4008801 L14.0272546,34.4008801 C14.6411335,34.4008801 15.1405641,34.9002971 15.1405641,35.5141592 L15.1405641,53.6601628 L15.1404528,53.6601628 Z M18.4851686,8.98850393 L27.3865235,6.60341484 L27.3865235,10.7286705 L26.6403834,10.9286154 C26.3550422,11.0050976 26.1120068,11.1915719 25.9643819,11.4472921 C25.8167571,11.7030123 25.7766779,12.0068262 25.8531623,12.2920483 C26.2810071,13.8886018 25.3301295,15.5354755 23.7335323,15.9633087 C23.4479684,16.0399023 23.2044876,16.2267105 23.0569741,16.4829873 C22.9094606,16.7391529 22.8697154,17.0435234 22.9468678,17.3289681 L27.286437,33.3978156 L25.0520248,33.3978156 L23.9005287,28.8930432 C23.8639008,28.7496528 23.7997742,28.6175066 23.713938,28.5026162 L18.4851686,8.98850393 Z M27.3865235,15.834057 L27.3865235,25.2280171 L25.3559583,17.7094869 C26.2041888,17.2715229 26.8983373,16.6162468 27.3865235,15.834057 Z M43.3807733,54.7733305 L22.2793274,54.7733305 C21.4616016,54.7733305 20.6719311,54.4774209 20.055603,53.9400411 L17.3670718,51.5953641 L17.3670718,36.1979352 L22.2275585,31.3375814 L23.109077,34.7865199 C23.2351036,35.2793686 23.6789801,35.6240398 24.1876512,35.6240398 L46.0757617,35.6253757 C46.9352366,35.6253757 47.634395,36.324515 47.634395,37.1839664 C47.634395,38.0434179 46.9352366,38.7425571 46.0757617,38.7425571 L34.8602816,38.7425571 C34.2455121,38.7425571 33.7469721,39.2410835 33.7469721,39.8558362 C33.7469721,40.4705889 34.2455121,40.9691153 34.8602816,40.9691153 L49.5604205,40.9691153 C50.4198954,40.9691153 51.1190538,41.6682546 51.1190538,42.527706 C51.1190538,43.3871574 50.4198954,44.0862967 49.5604205,44.0862967 L34.8602816,44.0862967 C34.2455121,44.0862967 33.7469721,44.5848231 33.7469721,45.1995758 C33.7469721,45.8143285 34.2455121,46.3128549 34.8602816,46.3128549 L47.1782721,46.3128549 C48.0377471,46.3128549 48.7369054,47.0119941 48.7369054,47.8714456 C48.7369054,48.730897 48.0377471,49.4300363 47.1782721,49.4300363 L34.8602816,49.4300363 C34.2455121,49.4300363 33.7469721,49.9285626 33.7469721,50.5433153 C33.7469721,51.1580681 34.2455121,51.6565944 34.8602816,51.6565944 L43.3807733,51.6565944 C44.2402483,51.6565944 44.9394067,52.3557337 44.9394067,53.2151851 C44.9392953,54.0741913 44.240137,54.7733305 43.3807733,54.7733305 Z M54.773381,54.7733305 L46.8288042,54.7733305 C47.044675,54.2976264 47.1659144,53.7702661 47.1659144,53.2147398 C47.1659144,52.6592136 47.044675,52.1318533 46.8288042,51.6561491 L47.1782721,51.6561491 C49.2653935,51.6561491 50.9634131,49.9581759 50.9634131,47.8711116 C50.9634131,47.2623706 50.8181262,46.6871393 50.5616197,46.1770348 C52.1643401,45.7368443 53.3454502,44.2678725 53.3454502,42.5274833 C53.3454502,41.6831725 53.0673455,40.9026525 52.5983082,40.2725366 L52.5983082,26.1628376 C52.5983082,25.5480849 52.0997682,25.0495585 51.4849986,25.0495585 C50.8702291,25.0495585 50.3716891,25.5480849 50.3716891,26.1628376 L50.3716891,38.8310628 C50.1100614,38.773729 49.8387479,38.7425571 49.5601978,38.7425571 L49.5236813,38.7425571 C49.739552,38.266853 49.8607914,37.7394927 49.8607914,37.1839664 C49.8607914,35.0967908 48.1627717,33.3989289 46.0756504,33.3989289 L44.2860053,33.3989289 C46.1863133,32.5840086 47.5209488,30.6952193 47.5209488,28.4999443 C47.5209488,25.5621122 45.1308959,23.1720133 42.1929834,23.1720133 C39.2551823,23.1720133 36.8650181,25.5621122 36.8650181,28.4999443 C36.8650181,30.6952193 38.1997648,32.5840086 40.0999615,33.3989289 L34.0142777,33.3989289 L34.0142777,12.2308179 C36.0030938,11.7974184 37.5724149,10.2282515 38.005715,8.23937844 L46.3801405,8.23937844 C46.8134406,10.2282515 48.3827617,11.7974184 50.3715778,12.2308179 L50.3715778,15.6920026 C50.3715778,16.3067553 50.8701178,16.8052816 51.4848873,16.8052816 C52.0996568,16.8052816 52.5981968,16.3067553 52.5981968,15.6920026 L52.5981968,11.2368823 C52.5981968,10.6221296 52.0996568,10.1236033 51.4848873,10.1236033 C49.8319567,10.1236033 48.4874128,8.77887348 48.4874128,7.12609936 C48.4874128,6.51134666 47.9888728,6.01282029 47.3741032,6.01282029 L37.0118636,6.01282029 C36.3970941,6.01282029 35.8985541,6.51134666 35.8985541,7.12609936 C35.8985541,8.77898481 34.5538988,10.1236033 32.9010795,10.1236033 C32.28631,10.1236033 31.78777,10.6221296 31.78777,11.2368823 L31.78777,33.3988176 L29.6132539,33.3988176 L29.6132539,2.22778276 L54.773381,2.22655815 L54.773381,54.7733305 Z M42.1932061,31.6013172 C40.4830513,31.6013172 39.0918598,30.2100523 39.0918598,28.5000557 C39.0918598,26.790059 40.4831627,25.3986828 42.1932061,25.3986828 C43.9032495,25.3986828 45.2945524,26.7899477 45.2945524,28.4999443 C45.2945524,30.209941 43.9033608,31.6013172 42.1932061,31.6013172 Z" id="Shape"></path>
            </g>
        </g>
    </g>
</svg>