<?xml version="1.0" encoding="UTF-8"?>
<svg width="64px" height="62px" viewBox="0 0 64 62" version="1.1" xmlns="http://www.w3.org/2000/svg" xmlns:xlink="../../../../externale367.html?link=http://www.w3.org/1999/xlink">
    <!-- Generator: sketchtool 52.1 (67048) - http://www.bohemiancoding.com/sketch -->
    <title>188297F5-9621-4BC4-A872-A7FB9B503C6B</title>
    <desc>Created with sketchtool.</desc>
    <g id="Page-1" stroke="none" stroke-width="1" fill="none" fill-rule="evenodd">
        <g id="PrimeXBT_ref" transform="translate(-855.000000, -1986.000000)" fill="#2892cf">
            <g id="money-2" transform="translate(855.000000, 1986.000000)">
                <path d="M54.0906713,20.0000005 C54.0900066,20.0000005 54.0892089,20.0000005 54.0885442,20.0000005 L0.911455815,20.0000005 C0.408666445,19.9994755 0.000532291294,20.4013675 5.20410363e-07,20.8977605 C5.20410363e-07,20.8984167 5.20410363e-07,20.8992042 5.20410363e-07,20.8998605 L5.20410363e-07,46.10014 C-0.000531250473,46.596533 0.406539361,46.999475 0.909328732,47 C0.909993445,47 0.910791101,47 0.911455815,47 L37.0718759,47 C37.575197,47 37.9833312,46.597058 37.9833312,46.10014 C37.9833312,45.603222 37.575197,45.20028 37.0718759,45.20028 L1.82291111,45.20028 L1.82291111,21.7997205 L53.1770889,21.7997205 L53.1770889,24.0498954 C53.1765571,24.5462884 53.5836277,24.9492304 54.0864171,24.9497554 C54.0870818,24.9497554 54.0878795,24.9497554 54.0885442,24.9497554 C54.5913336,24.9502804 54.9994677,24.5483885 54.9999995,24.0519955 C54.9999995,24.0513392 54.9999995,24.0505517 54.9999995,24.0498954 L54.9999995,20.8998605 C55.0005313,20.4034675 54.5934606,20.0006568 54.0906713,20.0000005 Z" id="Path"></path>
                <path d="M48.2812492,16.2612387 L5.27453979,7.02129139 C5.03585256,6.97034335 4.78574166,7.01166644 4.57890627,7.1362774 C4.37233967,7.26191502 4.22625125,7.46044555 4.17249287,7.68862092 L2.0221574,16.9285682 C1.91168391,17.4031422 2.22509531,17.8733529 2.72209159,17.9788422 C3.21908788,18.0843316 3.7115147,17.78506 3.82198818,17.3104861 L5.77126729,8.93190716 L47.8769861,17.9778156 C47.9436465,17.9925738 48.0117853,17.9998888 48.0801928,17.9993755 C48.589016,17.9984771 49.0008052,17.6038544 48.9999988,17.1179872 C48.9991924,16.7071945 48.7008334,16.3517132 48.2812492,16.2612387 Z" id="Path"></path>
                <path d="M43.4473246,10.307955 L18.3501212,0.0679599227 C17.9139266,-0.110087992 17.4113289,0.0728239204 17.1998327,0.486775723 L15.1083991,4.58277377 C14.8721978,5.01054957 15.0348068,5.54494931 15.4717857,5.7762452 C15.9086339,6.00754109 16.4543673,5.84830917 16.6905686,5.42040537 C16.6998493,5.40363738 16.7086072,5.38648539 16.7167115,5.3690774 L16.7167115,5.3711254 L18.4327328,2.008311 L42.7550601,11.9318903 C43.213084,12.1190262 43.739341,11.9073143 43.9304458,11.4588025 C44.1215505,11.0105467 43.9053486,10.495219 43.4473246,10.307955 Z" id="Path"></path>
                <path d="M44.1120091,25 L35.8879909,25 C35.3976272,25 35,25.447783 35,26 C35,26.552217 35.3976272,27 35.8879909,27 L44.1120091,27 C44.6023728,27 45,26.552217 45,26 C45,25.447783 44.6023728,25 44.1120091,25 Z" id="Path"></path>
                <path d="M26.5,25 C21.2532741,25 17,29.2532741 17,34.5 C17.0053977,39.7444318 21.2555682,43.9946023 26.5,44 C31.7467259,44 36,39.7467259 36,34.5 C36,29.2532741 31.7467259,25 26.5,25 Z M26.5,42.2727273 C22.2071875,42.2727273 18.7272727,38.7928125 18.7272727,34.5 C18.7319957,30.2092116 22.2092116,26.7319957 26.5,26.7272727 C30.7928125,26.7272727 34.2727273,30.2071875 34.2727273,34.5 C34.2727273,38.7928125 30.7928125,42.2727273 26.5,42.2727273 Z" id="Shape"></path>
                <path d="M52,28 C46.2181818,28 40,29.33025 40,32.25 L40,57.75 C40,60.66975 46.2181818,62 52,62 C57.7818182,62 64,60.66975 64,57.75 L64,32.25 C64,29.33025 57.7818182,28 52,28 Z M61.8181818,57.7340625 C61.6534545,58.32375 58.3818182,59.875 52,59.875 C45.6181818,59.875 42.3465455,58.32375 42.1818182,57.75 L42.1818182,56.07975 C44.5032727,57.21875 48.3378182,57.75 52,57.75 C55.6621818,57.75 59.4978182,57.2134375 61.8181818,56.0786875 L61.8181818,57.7340625 Z M61.8181818,53.4840625 C61.6534545,54.07375 58.3818182,55.625 52,55.625 C45.6181818,55.625 42.3465455,54.07375 42.1818182,53.5 L42.1818182,51.82975 C44.5032727,52.96875 48.3378182,53.5 52,53.5 C55.6621818,53.5 59.4978182,52.9634375 61.8181818,51.8286875 L61.8181818,53.4840625 Z M61.8181818,49.2340625 C61.6534545,49.82375 58.3818182,51.375 52,51.375 C45.6181818,51.375 42.3465455,49.82375 42.1818182,49.25 L42.1818182,47.57975 C44.5032727,48.71875 48.3378182,49.25 52,49.25 C55.6621818,49.25 59.4978182,48.7134375 61.8181818,47.5786875 L61.8181818,49.2340625 Z M61.8181818,44.9840625 C61.6534545,45.57375 58.3818182,47.125 52,47.125 C45.6181818,47.125 42.3465455,45.57375 42.1818182,45 L42.1818182,43.32975 C44.5032727,44.46875 48.3378182,45 52,45 C55.6621818,45 59.4978182,44.4634375 61.8181818,43.3286875 L61.8181818,44.9840625 Z M61.8181818,40.7340625 C61.6534545,41.32375 58.3818182,42.875 52,42.875 C45.6181818,42.875 42.3465455,41.32375 42.1818182,40.75 L42.1818182,39.07975 C44.5032727,40.2134375 48.3378182,40.75 52,40.75 C55.6621818,40.75 59.4978182,40.2134375 61.8181818,39.0786875 L61.8181818,40.7340625 Z M61.8181818,36.4840625 C61.6534545,37.07375 58.3818182,38.625 52,38.625 C45.6181818,38.625 42.3465455,37.07375 42.1818182,36.5 L42.1818182,34.82975 C44.5032727,35.9634375 48.3378182,36.5 52,36.5 C55.6621818,36.5 59.4978182,35.9634375 61.8181818,34.8286875 L61.8181818,36.4840625 Z M52,34.375 C45.628,34.375 42.3574545,32.828 42.1818182,32.269125 L42.1818182,32.26275 C42.3574545,31.6709375 45.628,30.125 52,30.125 C58.3272727,30.125 61.6,31.648625 61.8181818,32.25 C61.6,32.851375 58.3272727,34.375 52,34.375 Z" id="Shape"></path>
                <path d="M18.0627051,42.1614634 L9.79548017,42.1614634 L5.87568466,37.9566427 L5.87568466,30.9843633 L10.2045213,26.8385387 L18.0627051,26.8385387 C18.5802953,26.8385387 19,26.4269061 19,25.9192705 C19,25.4116349 18.5802953,25.0000023 18.0627051,25.0000023 L9.82391619,25.0000023 C9.57892897,24.999466 9.34337485,25.0930554 9.16770042,25.2606583 L4.28217404,29.9342308 C4.09966403,30.1433991 3.99959112,30.4098207 4.00000126,30.6850916 L4.00000126,38.3138379 C4.00000126,38.5432527 4.08735998,38.7643544 4.24498848,38.9338344 L8.68866291,43.7007282 C8.8662513,43.8913932 9.11752726,44.000134 9.38097055,43.9999999 L18.0627051,43.9999999 C18.5802953,43.9999999 19,43.5883672 19,43.0807317 C19,42.5730961 18.580432,42.1614634 18.0627051,42.1614634 Z" id="Path"></path>
                <path d="M27.0833333,32.8888889 L25.9166667,32.8888889 C25.5538333,32.8888889 25.3333333,32.6955556 25.3333333,32.6111111 C25.3333333,32.5266667 25.5538333,32.3333333 25.9166667,32.3333333 L28.8333333,32.3333333 C29.477625,32.3333333 30,31.8358333 30,31.2222222 C30,30.6086111 29.477625,30.1111111 28.8333333,30.1111111 L27.6666667,30.1111111 C27.6666667,29.4975 27.1442917,29 26.5,29 C25.8557083,29 25.3333333,29.4975 25.3333333,30.1111111 L25.3333333,30.1611111 C24.0393542,30.3351389 23.0590625,31.3622222 23,32.6055556 C23.0835625,34.0623611 24.3864375,35.1816667 25.9166667,35.1111111 L27.0833333,35.1111111 C27.4461667,35.1111111 27.6666667,35.3044444 27.6666667,35.3888889 C27.6666667,35.4733333 27.4461667,35.6666667 27.0833333,35.6666667 L24.1666667,35.6666667 C23.522375,35.6666667 23,36.1641667 23,36.7777778 C23,37.3913889 23.522375,37.8888889 24.1666667,37.8888889 L25.3333333,37.8888889 C25.3333333,38.5025 25.8557083,39 26.5,39 C27.1442917,39 27.6666667,38.5025 27.6666667,37.8888889 L27.6666667,37.8388889 C28.9606458,37.6648611 29.9409375,36.6377778 30,35.3944444 C29.9164375,33.9376389 28.6135625,32.8183333 27.0833333,32.8888889 Z" id="Path"></path>
            </g>
        </g>
    </g>
</svg>