<?xml version="1.0" encoding="UTF-8"?>
<svg width="25px" height="75px" viewBox="0 0 25 75" version="1.1" xmlns="http://www.w3.org/2000/svg" xmlns:xlink="../../../../externale367.html?link=http://www.w3.org/1999/xlink">
    <!-- Generator: sketchtool 52.1 (67048) - http://www.bohemiancoding.com/sketch -->
    <title>4E795BCB-B5E9-462D-B809-8C5BCA57FE57</title>
    <desc>Created with sketchtool.</desc>
    <g id="Page-1" stroke="none" stroke-width="1" fill="none" fill-rule="evenodd">
        <g id="PrimeXBT_ref" transform="translate(-160.000000, -1960.000000)" fill="#2892cf">
            <g id="Group-20" transform="translate(172.500000, 1997.500000) scale(-1, 1) translate(-172.500000, -1997.500000) translate(160.000000, 1960.000000)">
                <path d="M1.16144096,23.4534601 C-0.873145349,25.5068042 0.272251389,34.0700092 0.814807739,36.0473035 C1.5382162,38.7090457 3.46730545,42.2985952 3.75365463,42.8157337 C4.11535887,43.6522813 4.34142401,44.5192488 4.43185007,45.4166362 L7.14463182,72.262208 C7.29534191,73.8288334 8.59144875,75 10.1588338,75 L14.8459178,75 C16.3982318,75 17.6943386,73.8136235 17.8601197,72.262208 L20.5729015,45.4166362 C20.6633275,44.5192488 20.8893927,43.6370713 21.2510969,42.8157337 C21.5374461,42.2833853 23.4665353,38.7090457 24.1899438,36.0473035 C24.7174291,34.0700092 25.8778969,25.5068042 23.8433106,23.4534601 C23.2856832,22.8906918 22.969192,22.5864927 22.3060676,22.0845641 C19.9399191,20.3202093 17.0914982,19.1642526 16.9709301,19.1034128 C16.3831608,18.8600535 15.7200363,19.0577829 15.3583321,19.5749214 L12.4797693,23.5143 L9.64641943,19.5749214 C9.2847152,19.0577829 8.60651976,18.8752635 8.03382139,19.1034128 C7.91325331,19.1490427 5.07990349,20.3202093 2.69868395,22.0845641 C2.03555953,22.5864927 1.70399731,22.8906918 1.16144096,23.4534601 Z M3.12067222,25.3699146 C3.61801555,24.867986 3.82900968,24.6702566 4.326353,24.3052177 C5.62245984,23.3317805 7.12956081,22.5560728 8.09410543,22.0997741 L11.3795855,26.6627608 C11.6357927,27.0125898 12.04271,27.2255292 12.4797693,27.2255292 C12.9168285,27.2255292 13.3237458,27.0125898 13.579953,26.6627608 L16.8654331,22.0997741 C17.8149067,22.5560728 19.3220077,23.3317805 20.6331855,24.3052177 C21.1305288,24.6702566 21.341523,24.867986 21.8388663,25.3699146 C22.4718487,26.4041915 22.2759256,32.5033838 21.5073041,35.3172256 C20.8291086,37.8116583 18.8095933,41.4924676 18.7794513,41.5228875 C18.7643803,41.5533074 18.7342383,41.5989373 18.7191673,41.6445672 C18.236895,42.7548939 17.9204038,43.9260605 17.7998357,45.142857 L15.0870539,71.9884288 C15.0719829,72.1405283 14.9514148,72.246998 14.8007048,72.246998 L10.1136207,72.246998 C9.96291063,72.246998 9.84234256,72.1405283 9.82727155,71.9884288 L7.1144898,45.142857 C6.99392172,43.9412705 6.69250153,42.7548939 6.19515821,41.6445672 C6.1800872,41.5989373 6.16501619,41.5685174 6.13487417,41.5228875 C6.11980316,41.4924676 4.08521685,37.7964484 3.40702141,35.3020156 C2.68361294,32.5033838 2.48768982,26.4041915 3.12067222,25.3699146 Z" id="Shape"></path>
                <path d="M12.3676566,16 C12.3970662,16 12.4411807,16 12.4705904,16 C12.4852952,16 12.5294096,16 12.5441145,16 C12.5735241,16 12.6029338,16 12.6323434,16 C14.4557417,15.9704251 15.9262242,15.3197782 17.0290861,14.0628466 C19.3524484,11.4454713 18.9995326,7.03881701 18.9554182,6.5064695 C18.720141,1.70055453 15.4115553,0 12.6323434,0 C12.5882289,0 12.5441145,0 12.5,0 C12.4705904,0 12.4264759,0 12.3676566,0 C9.60314949,0 6.27985905,1.70055453 6.04458185,6.5064695 C6.00046737,7.03881701 5.64755158,11.4306839 7.97091392,14.0480591 C9.07377579,15.3049908 10.5589631,15.9556377 12.3676566,16 Z M8.70615516,6.75785582 C8.70615516,6.72828096 8.70615516,6.6987061 8.70615516,6.66913124 C8.86790824,3.06099815 11.323614,2.67652495 12.3676566,2.67652495 L12.4411807,2.67652495 C12.4705904,2.67652495 12.5147048,2.67652495 12.5441145,2.67652495 L12.6176386,2.67652495 C13.6616812,2.67652495 16.1173869,3.06099815 16.27914,6.66913124 C16.27914,6.6987061 16.27914,6.72828096 16.27914,6.74306839 C16.3820738,7.76340111 16.367369,10.7504621 15.0145251,12.2735675 C14.4116272,12.9537893 13.588157,13.2939002 12.5147048,13.2939002 C12.5,13.2939002 12.4852952,13.2939002 12.4705904,13.2939002 C11.3971381,13.2791128 10.5736679,12.9537893 9.97077011,12.2735675 C8.61792621,10.7652495 8.60322139,7.77818854 8.70615516,6.75785582 Z" id="Shape"></path>
            </g>
        </g>
    </g>
</svg>