<svg xmlns="http://www.w3.org/2000/svg" width="51" height="51" viewBox="0 0 51 51">
    <g fill="none" fill-rule="evenodd" stroke="#FFF" stroke-width=".5">
        <path fill="#0E2738" d="M35.65 31.255a1.087 1.087 0 0 0-1.482.078C31.978 33.664 28.82 35 25.5 35c-3.318 0-6.477-1.336-8.668-3.667a1.087 1.087 0 0 0-1.482-.078.967.967 0 0 0-.082 1.412C17.856 35.421 21.586 37 25.5 37c3.916 0 7.645-1.58 10.233-4.333a.968.968 0 0 0-.082-1.412z"/>
        <path fill="#0E2738" fill-rule="nonzero" d="M25.5 1C11.99 1 1 11.99 1 25.5S11.99 50 25.5 50 50 39.01 50 25.5 39.01 1 25.5 1zm0 46.87c-12.335 0-22.37-10.035-22.37-22.37S13.165 3.13 25.5 3.13 47.87 13.165 47.87 25.5 37.835 47.87 25.5 47.87z"/>
        <path fill="#52AFEF" d="M34.5 18c-3.033 0-5.5 2.243-5.5 5 0 .552.493 1 1.1 1 .607 0 1.1-.448 1.1-1 0-1.654 1.48-3 3.3-3 1.82 0 3.3 1.346 3.3 3 0 .552.493 1 1.1 1 .607 0 1.1-.448 1.1-1 0-2.757-2.467-5-5.5-5zM19.8 23c0 .552.493 1 1.1 1 .607 0 1.1-.448 1.1-1 0-2.757-2.467-5-5.5-5S11 20.243 11 23c0 .552.493 1 1.1 1 .607 0 1.1-.448 1.1-1 0-1.654 1.48-3 3.3-3 1.82 0 3.3 1.346 3.3 3z"/>
    </g>
</svg>
