<svg xmlns="http://www.w3.org/2000/svg" width="61" height="62" viewBox="0 0 61 62">
    <g fill="none" fill-rule="evenodd" stroke="#FFF" stroke-width=".3">
        <path fill="#52AFEF" d="M24.559 28.87a1.092 1.092 0 0 0 1.096-.036l11.846-7.437c.31-.196.499-.534.499-.897s-.188-.701-.499-.897l-11.846-7.437a1.095 1.095 0 0 0-1.097-.036 1.063 1.063 0 0 0-.558.932v14.875c0 .388.214.745.559.932zm1.595-13.873l8.764 5.503-8.764 5.503V14.997z"/>
        <path fill="#122B3B" d="M1 1v60h59V1H1zm56.815 2.182v36H3.185v-36h54.63zM3.185 58.818V41.364h54.63v17.454H3.185z"/>
        <path fill="#122B3B" d="M51.906 49.375h-26.25v-2.25c0-.622-.489-1.125-1.093-1.125-.605 0-1.094.503-1.094 1.125v2.25h-4.375c-.605 0-1.094.503-1.094 1.125s.489 1.125 1.094 1.125h4.375v2.25c0 .622.489 1.125 1.093 1.125.605 0 1.094-.503 1.094-1.125v-2.25h26.25c.605 0 1.094-.503 1.094-1.125s-.489-1.125-1.094-1.125zM9 46c-.553 0-1 .503-1 1.125v6.75C8 54.497 8.447 55 9 55c.553 0 1-.503 1-1.125v-6.75C10 46.503 9.553 46 9 46zM13 46c-.553 0-1 .503-1 1.125v6.75c0 .622.447 1.125 1 1.125.553 0 1-.503 1-1.125v-6.75c0-.622-.447-1.125-1-1.125z"/>
    </g>
</svg>
