<svg xmlns="http://www.w3.org/2000/svg" width="72" height="72" viewBox="0 0 72 72">
    <g fill="none" fill-rule="evenodd" stroke="#FFF" stroke-width=".7">
        <path fill="#0E2738" fill-rule="nonzero" d="M65.355 19.065h-7.903V1H7.774v18.065H6.645A5.652 5.652 0 0 0 1 24.71v33.87a5.652 5.652 0 0 0 5.645 5.646h14.678v4.516h-4.517V71h38.388v-2.258h-4.517v-4.516h14.678A5.652 5.652 0 0 0 71 58.58V24.71a5.652 5.652 0 0 0-5.645-5.645zm-10.161 9.032h2.258v6.774h-2.258v-6.774zm-2.259 2.258H32.613v-2.258h20.322v2.258zm-22.58 4.016l-6.45-2.419a.502.502 0 0 1 .001-.937l6.449-2.418v5.774zm2.258-1.758h20.322v2.258H32.613v-2.258zm27.097-4.516h1.129a3.392 3.392 0 0 1 3.387 3.387 3.392 3.392 0 0 1-3.387 3.387h-1.13v-6.774zm-28.432-2.258L23.113 28.9c-1.07.4-1.79 1.439-1.79 2.583 0 1.144.72 2.182 1.79 2.583l8.165 3.062h23.916v11.29H10.032V12.29h45.162V25.84H31.278zm23.916-22.58v6.773H10.032V3.258h45.162zM6.645 21.322h1.13v29.354h49.677V37.13h3.387a5.652 5.652 0 0 0 5.645-5.645 5.652 5.652 0 0 0-5.645-5.645h-3.387v-4.516h7.903a3.392 3.392 0 0 1 3.387 3.387v30.484H3.258V24.71a3.392 3.392 0 0 1 3.387-3.387zM48.42 68.742H23.581v-4.516h24.838v4.516zm16.936-6.774H6.645a3.392 3.392 0 0 1-3.387-3.387v-1.13h65.484v1.13a3.392 3.392 0 0 1-3.387 3.387z"/>
        <path fill="#0E2738" d="M11 6h2v2h-2zM15 6h2v2h-2zM21 6h2v2h-2z"/>
        <path fill="#52AFEF" fill-rule="nonzero" d="M10 24h14v-9H10v9zm2.333-6.75h9.334v4.5h-9.334v-4.5zM29 15v9h14v-9H29zm11.667 6.75h-9.334v-4.5h9.334v4.5z"/>
        <path fill="#0E2738" d="M11 26h8v2h-8zM11 30h7v2h-7zM11 35h8v2h-8zM10 40h41v2H10zM49 44h2v2h-2zM11 44h36v2H11z"/>
    </g>
</svg>
